<svg width="190" height="85" viewBox="0 0 190 85" fill="none" xmlns="http://www.w3.org/2000/svg">
<path d="M89.12 76.76C88.4267 76.76 87.7867 76.5333 87.2 76.08C86.6133 75.6533 86.1333 75.0667 85.76 74.32C84.9867 72.6933 84.5067 70.92 84.32 69C84.08 67.1867 83.96 65.44 83.96 63.76C83.96 63.44 83.9733 63.1733 84 62.96V62.24C84 62.1067 83.9867 62.04 83.96 62.04V61.32L84 58.52C84.0267 57.6667 84.1333 56.3067 84.32 54.44C84.4533 53.16 84.76 51.92 85.24 50.72C85.4267 50.1867 85.6667 49.7867 85.96 49.52C86.2533 49.2267 86.5867 49.08 86.96 49.08C88.0267 49.08 88.9867 49.28 89.84 49.68C90.6933 50.0533 91.4133 50.5867 92 51.28C92.5333 51.9467 92.9867 52.7733 93.36 53.76C93.7333 54.72 94 55.7467 94.16 56.84C94.32 57.96 94.4 59.1467 94.4 60.4V60.72C94.4 61.5467 94.4133 62.2933 94.44 62.96L94.48 65.24C94.48 72.92 92.6933 76.76 89.12 76.76ZM88.96 75.08C89.44 75.08 89.88 74.8933 90.28 74.52C90.68 74.12 90.9867 73.5867 91.2 72.92C91.7067 71.56 92.0133 70.0933 92.12 68.52C92.2533 67.16 92.32 65.9867 92.32 65C92.32 63.8 92.2267 62.2267 92.04 60.28C91.88 58.2267 91.8 56.6933 91.8 55.68V54.96C91.7467 53.9467 91.4 53.0667 90.76 52.32C90.1467 51.5733 89.3867 51.2 88.48 51.2C87.5733 51.2 86.9733 51.72 86.68 52.76C86.4133 53.5867 86.28 54.6533 86.28 55.96C86.28 56.4667 86.2933 56.8933 86.32 57.24V58.32L86.24 60.16C86.1867 60.72 86.16 61.3333 86.16 62C86.16 63.44 86.2 64.8667 86.28 66.28C86.3867 68.28 86.6533 70.2267 87.08 72.12C87.5067 74.0933 88.1333 75.08 88.96 75.08Z" fill="#4B2D9F"/>
<path d="M105.854 76.68C105.267 76.68 104.734 76.04 104.254 74.76C103.694 73.3733 103.281 71.9467 103.014 70.48L102.734 69.12C101.961 65.3067 101.467 63.1333 101.254 62.6H100.774C100.774 63.3733 100.761 64.08 100.734 64.72V66.92C100.734 70.4933 100.987 73.28 101.494 75.28L101.054 76.36H99.9341L99.4141 75.76L99.4541 73.08C99.4541 70.68 99.3341 67.04 99.0941 62.16C98.8807 56.96 98.7741 53.32 98.7741 51.24C98.7741 49.96 99.2141 49.32 100.094 49.32C101.534 49.32 102.707 49.6933 103.614 50.44C104.547 51.1867 105.014 52.2267 105.014 53.56V56.36C105.014 56.76 104.947 57.2267 104.814 57.76C104.681 58.2667 104.534 58.68 104.374 59L103.614 60.44L102.974 61.64L103.174 62.6L103.734 65.44C104.107 67.4933 104.467 69.16 104.814 70.44C105.161 71.72 105.587 72.88 106.094 73.92L106.334 74.4C106.601 74.9333 106.734 75.36 106.734 75.68C106.734 75.9467 106.654 76.1733 106.494 76.36C106.334 76.5733 106.121 76.68 105.854 76.68ZM100.934 60.64C101.521 60.3467 102.014 59.5467 102.414 58.24C102.841 56.9067 103.054 55.68 103.054 54.56C103.054 53.7067 102.947 52.9067 102.734 52.16C102.601 51.7333 102.374 51.4133 102.054 51.2C101.761 50.96 101.387 50.84 100.934 50.84L100.854 51.04L100.774 51.4L100.854 56.12C100.907 57.5067 100.934 59.0133 100.934 60.64Z" fill="#F05165"/>
<path d="M116.811 76.64C115.851 76.32 114.664 76.16 113.251 76.16C112.824 76.4267 112.371 76.56 111.891 76.56C111.571 76.56 111.291 76.4133 111.051 76.12C110.838 75.8533 110.731 75.56 110.731 75.24C110.731 73 110.824 70.0133 111.011 66.28C111.171 62.3067 111.251 59.3333 111.251 57.36V57.08C111.091 55.4 111.011 54.1467 111.011 53.32C111.011 50.7867 111.478 49.52 112.411 49.52C112.678 49.52 112.904 49.6267 113.091 49.84C113.304 50.0267 113.411 50.2533 113.411 50.52C113.411 50.84 113.371 51.3467 113.291 52.04C113.211 52.7067 113.171 53.2133 113.171 53.56C113.171 55.3467 113.184 56.96 113.211 58.4C113.238 59.8133 113.251 61.4133 113.251 63.2C113.118 63.6 113.051 64.16 113.051 64.88V65.36L112.971 68.52C112.918 69.4533 112.891 70.52 112.891 71.72C112.891 73.56 113.331 74.48 114.211 74.48C114.264 74.48 114.344 74.48 114.451 74.48C114.584 74.4533 114.758 74.44 114.971 74.44C115.211 74.4133 115.518 74.4 115.891 74.4C117.331 74.4 118.051 74.8 118.051 75.6C118.051 75.8667 117.931 76.0933 117.691 76.28C117.451 76.4667 117.158 76.5867 116.811 76.64ZM122.634 76.24C121.941 76.24 121.594 74.4933 121.594 71L121.674 64.68C121.701 62.8133 121.714 60.72 121.714 58.4C121.714 57.5467 121.634 56.2267 121.474 54.44C121.341 52.4933 121.274 51.3067 121.274 50.88C121.274 50.5333 121.421 50.2267 121.714 49.96C122.007 49.6933 122.327 49.56 122.674 49.56C123.607 49.56 124.501 49.7733 125.354 50.2C126.234 50.6 127.007 51.1733 127.674 51.92C129.087 53.5467 130.021 55.3333 130.474 57.28C130.714 58.2667 130.834 59.24 130.834 60.2C130.834 60.5467 130.821 60.8667 130.794 61.16L130.754 62.24V64.44C130.754 66.1467 130.701 67.4933 130.594 68.48C130.434 69.8133 130.127 71 129.674 72.04C129.141 73.16 128.367 74.16 127.354 75.04C126.874 75.44 126.261 75.84 125.514 76.24H122.634ZM124.394 74.2C124.927 74.2 125.421 74.0667 125.874 73.8C126.327 73.5067 126.714 73.12 127.034 72.64C127.301 72.2133 127.541 71.68 127.754 71.04C127.994 70.3733 128.167 69.7333 128.274 69.12C128.514 67.92 128.661 66.6933 128.714 65.44C128.741 65.12 128.754 64.6533 128.754 64.04C128.754 55.9867 127.194 51.7867 124.074 51.44C123.887 52.64 123.794 54.0267 123.794 55.6C123.794 57.28 123.901 60.2133 124.114 64.4C124.301 68.1067 124.394 71.0533 124.394 73.24V74.2Z" fill="#85BB4D"/>
<path d="M89.12 44.76C88.4267 44.76 87.7867 44.5333 87.2 44.08C86.6133 43.6533 86.1333 43.0667 85.76 42.32C84.9867 40.6933 84.5067 38.92 84.32 37C84.08 35.1867 83.96 33.44 83.96 31.76C83.96 31.44 83.9733 31.1733 84 30.96V30.24C84 30.1067 83.9867 30.04 83.96 30.04V29.32L84 26.52C84.0267 25.6667 84.1333 24.3067 84.32 22.44C84.4533 21.16 84.76 19.92 85.24 18.72C85.4267 18.1867 85.6667 17.7867 85.96 17.52C86.2533 17.2267 86.5867 17.08 86.96 17.08C88.0267 17.08 88.9867 17.28 89.84 17.68C90.6933 18.0533 91.4133 18.5867 92 19.28C92.5333 19.9467 92.9867 20.7733 93.36 21.76C93.7333 22.72 94 23.7467 94.16 24.84C94.32 25.96 94.4 27.1467 94.4 28.4V28.72C94.4 29.5467 94.4133 30.2933 94.44 30.96L94.48 33.24C94.48 40.92 92.6933 44.76 89.12 44.76ZM88.96 43.08C89.44 43.08 89.88 42.8933 90.28 42.52C90.68 42.12 90.9867 41.5867 91.2 40.92C91.7067 39.56 92.0133 38.0933 92.12 36.52C92.2533 35.16 92.32 33.9867 92.32 33C92.32 31.8 92.2267 30.2267 92.04 28.28C91.88 26.2267 91.8 24.6933 91.8 23.68V22.96C91.7467 21.9467 91.4 21.0667 90.76 20.32C90.1467 19.5733 89.3867 19.2 88.48 19.2C87.5733 19.2 86.9733 19.72 86.68 20.76C86.4133 21.5867 86.28 22.6533 86.28 23.96C86.28 24.4667 86.2933 24.8933 86.32 25.24V26.32L86.24 28.16C86.1867 28.72 86.16 29.3333 86.16 30C86.16 31.44 86.2 32.8667 86.28 34.28C86.3867 36.28 86.6533 38.2267 87.08 40.12C87.5067 42.0933 88.1333 43.08 88.96 43.08ZM133.663 44.52C133.316 44.52 132.996 44.4 132.703 44.16C132.436 43.92 132.289 43.6267 132.263 43.28V42.24V41.44C132.236 41.2 132.223 40.92 132.223 40.6C132.223 40.04 132.183 39.1867 132.103 38.04L132.023 35.48C132.023 34.1733 132.063 32.2267 132.143 29.64C132.249 27.32 132.303 25.3733 132.303 23.8C132.303 23.4267 132.263 22.8667 132.183 22.12C132.103 21.3467 132.063 20.7867 132.063 20.44C132.063 18.5467 132.623 17.6 133.743 17.6C134.623 17.6 135.636 17.7733 136.783 18.12C137.956 18.4667 138.543 18.88 138.543 19.36C138.543 19.6267 138.423 19.88 138.183 20.12C137.969 20.3333 137.703 20.5067 137.383 20.64C136.263 20.24 135.249 19.9733 134.343 19.84C134.369 20.24 134.383 20.8133 134.383 21.56C134.383 22.6267 134.369 23.5867 134.343 24.44C134.263 25.72 134.223 26.68 134.223 27.32L134.343 27.96L134.983 27.92C135.196 27.8933 135.463 27.88 135.783 27.88C137.063 27.88 137.703 28.2533 137.703 29C137.703 29.2933 137.583 29.5467 137.343 29.76C137.103 29.9467 136.796 30.04 136.423 30.04C135.943 30.04 135.569 30.0133 135.303 29.96H134.303C134.356 30.6533 134.383 31.6667 134.383 33C134.383 34.3333 134.369 35.5333 134.343 36.6C134.263 38.2267 134.223 39.44 134.223 40.24C134.223 41.7333 134.249 42.48 134.303 42.48L135.623 42.44C136.076 42.4133 136.623 42.4 137.263 42.4C138.276 42.4 138.783 42.72 138.783 43.36C138.783 43.7333 138.609 44.0133 138.263 44.2C137.943 44.4133 137.543 44.52 137.063 44.52H133.663ZM150.19 44.68C149.603 44.68 149.07 44.04 148.59 42.76C148.03 41.3733 147.617 39.9467 147.35 38.48L147.07 37.12C146.297 33.3067 145.803 31.1333 145.59 30.6H145.11C145.11 31.3733 145.097 32.08 145.07 32.72V34.92C145.07 38.4933 145.323 41.28 145.83 43.28L145.39 44.36H144.27L143.75 43.76L143.79 41.08C143.79 38.68 143.67 35.04 143.43 30.16C143.217 24.96 143.11 21.32 143.11 19.24C143.11 17.96 143.55 17.32 144.43 17.32C145.87 17.32 147.043 17.6933 147.95 18.44C148.883 19.1867 149.35 20.2267 149.35 21.56V24.36C149.35 24.76 149.283 25.2267 149.15 25.76C149.017 26.2667 148.87 26.68 148.71 27L147.95 28.44L147.31 29.64L147.51 30.6L148.07 33.44C148.443 35.4933 148.803 37.16 149.15 38.44C149.497 39.72 149.923 40.88 150.43 41.92L150.67 42.4C150.937 42.9333 151.07 43.36 151.07 43.68C151.07 43.9467 150.99 44.1733 150.83 44.36C150.67 44.5733 150.457 44.68 150.19 44.68ZM145.27 28.64C145.857 28.3467 146.35 27.5467 146.75 26.24C147.177 24.9067 147.39 23.68 147.39 22.56C147.39 21.7067 147.283 20.9067 147.07 20.16C146.937 19.7333 146.71 19.4133 146.39 19.2C146.097 18.96 145.723 18.84 145.27 18.84L145.19 19.04L145.11 19.4L145.19 24.12C145.243 25.5067 145.27 27.0133 145.27 28.64ZM155.827 44.36C155.427 44.36 154.947 44.16 154.387 43.76C154.6 41.5467 154.774 38.1467 154.907 33.56C155.04 28.7867 155.134 25.92 155.187 24.96V24C155.294 21.3867 155.347 19.5733 155.347 18.56C155.347 18.1867 155.494 17.8933 155.787 17.68C156.107 17.4667 156.467 17.36 156.867 17.36C157.8 17.36 158.8 17.44 159.867 17.6C160.56 17.7067 161.107 17.88 161.507 18.12C161.934 18.36 162.147 18.6533 162.147 19C162.147 19.7467 161.467 20.12 160.107 20.12C159.6 19.8533 158.907 19.72 158.027 19.72H157.547V20.2C157.547 21.24 157.494 22.56 157.387 24.16C157.254 25.6533 157.187 27 157.187 28.2V29.28H157.507H157.907C159.214 29.28 159.867 29.6267 159.867 30.32C159.867 30.6667 159.72 30.9467 159.427 31.16C159.16 31.3733 158.827 31.48 158.427 31.48C157.787 31.48 157.267 31.4133 156.867 31.28V42.6C156.867 43.7733 156.52 44.36 155.827 44.36ZM169.15 44.6C168.51 44.6 167.936 44.4533 167.43 44.16C166.923 43.8933 166.51 43.4933 166.19 42.96C165.55 41.84 165.136 40.5733 164.95 39.16C164.763 37.9333 164.67 36.4667 164.67 34.76C164.59 31.88 164.55 28.36 164.55 24.2L164.51 21.12C164.483 20.96 164.47 20.6933 164.47 20.32C164.416 19.3067 164.39 18.6933 164.39 18.48C164.63 17.92 164.91 17.64 165.23 17.64C165.55 17.64 165.83 17.88 166.07 18.36C166.336 18.84 166.47 19.36 166.47 19.92V30.8C166.47 31.8667 166.563 33.28 166.75 35.04C166.936 37.2267 167.03 38.64 167.03 39.28C167.03 41.2533 167.87 42.24 169.55 42.24C171.47 42.24 172.43 35.0667 172.43 20.72V18.48V18.12C172.403 18.04 172.39 17.9333 172.39 17.8C172.39 17.48 172.456 17.2533 172.59 17.12C172.75 16.96 173.043 16.88 173.47 16.88C173.816 16.88 174.083 16.9867 174.27 17.2C174.483 17.3867 174.616 17.6133 174.67 17.88C174.696 18.04 174.71 18.3467 174.71 18.8C174.71 19.2267 174.67 19.9067 174.59 20.84C174.483 21.6133 174.43 22.28 174.43 22.84C174.43 23.4533 174.403 24 174.35 24.48L174.27 26.16V26.48C174.296 26.5867 174.31 26.7067 174.31 26.84C174.31 38.68 172.59 44.6 169.15 44.6ZM185.483 44.64C184.523 44.32 183.336 44.16 181.923 44.16C181.496 44.4267 181.043 44.56 180.563 44.56C180.243 44.56 179.963 44.4133 179.723 44.12C179.509 43.8533 179.403 43.56 179.403 43.24C179.403 41 179.496 38.0133 179.683 34.28C179.843 30.3067 179.923 27.3333 179.923 25.36V25.08C179.763 23.4 179.683 22.1467 179.683 21.32C179.683 18.7867 180.149 17.52 181.083 17.52C181.349 17.52 181.576 17.6267 181.763 17.84C181.976 18.0267 182.083 18.2533 182.083 18.52C182.083 18.84 182.043 19.3467 181.963 20.04C181.883 20.7067 181.843 21.2133 181.843 21.56C181.843 23.3467 181.856 24.96 181.883 26.4C181.909 27.8133 181.923 29.4133 181.923 31.2C181.789 31.6 181.723 32.16 181.723 32.88V33.36L181.643 36.52C181.589 37.4533 181.563 38.52 181.563 39.72C181.563 41.56 182.003 42.48 182.883 42.48C182.936 42.48 183.016 42.48 183.123 42.48C183.256 42.4533 183.429 42.44 183.643 42.44C183.883 42.4133 184.189 42.4 184.563 42.4C186.003 42.4 186.723 42.8 186.723 43.6C186.723 43.8667 186.603 44.0933 186.363 44.28C186.123 44.4667 185.829 44.5867 185.483 44.64Z" fill="#85BB4D"/>
<path d="M109.774 44.12C109.454 44.12 109.214 44.04 109.054 43.88C108.894 43.6933 108.774 43.3867 108.694 42.96L108.454 42.2V42.12V42C108.454 41.12 107.534 38.12 105.694 33C103.881 27.88 102.454 24.0933 101.414 21.64V41.76L101.574 42.04C101.601 42.0933 101.654 42.1867 101.734 42.32C101.814 42.4533 101.854 42.5867 101.854 42.72C101.854 43.0667 101.734 43.36 101.494 43.6C101.254 43.84 100.961 43.96 100.614 43.96C99.7607 43.96 99.3341 43.1467 99.3341 41.52L99.2941 34.68C99.2674 32.6267 99.2541 30.3333 99.2541 27.8C99.2541 26.9467 99.2941 25.7067 99.3741 24.08C99.4541 22.4 99.4941 21.16 99.4941 20.36C99.4941 19.1067 99.9741 18.12 100.934 17.4V17.64C101.094 17.5867 101.201 17.56 101.254 17.56C101.867 17.56 102.641 18.6267 103.574 20.76C104.321 22.4667 104.987 24.2667 105.574 26.16C106.187 28.0533 106.987 30.7467 107.974 34.24L108.374 35.68C108.987 37.84 109.454 39.3867 109.774 40.32C110.307 34.5867 110.574 27.8133 110.574 20V19.48C110.547 19.32 110.534 19.1467 110.534 18.96C110.534 18.16 110.854 17.76 111.494 17.76C111.867 17.76 112.147 17.9067 112.334 18.2C112.547 18.4933 112.654 18.8667 112.654 19.32V22.32C112.601 26.4267 112.441 30.88 112.174 35.68C111.907 40.48 111.587 43.1867 111.214 43.8C110.441 44.0133 109.961 44.12 109.774 44.12Z" fill="#EEA402"/>
<path d="M119.275 44.24C118.581 44.24 118.235 42.4933 118.235 39L118.315 32.68C118.341 30.8133 118.355 28.72 118.355 26.4C118.355 25.5467 118.275 24.2267 118.115 22.44C117.981 20.4933 117.915 19.3067 117.915 18.88C117.915 18.5333 118.061 18.2267 118.355 17.96C118.648 17.6933 118.968 17.56 119.315 17.56C120.248 17.56 121.141 17.7733 121.995 18.2C122.875 18.6 123.648 19.1733 124.315 19.92C125.728 21.5467 126.661 23.3333 127.115 25.28C127.355 26.2667 127.475 27.24 127.475 28.2C127.475 28.5467 127.461 28.8667 127.435 29.16L127.395 30.24V32.44C127.395 34.1467 127.341 35.4933 127.235 36.48C127.075 37.8133 126.768 39 126.315 40.04C125.781 41.16 125.008 42.16 123.995 43.04C123.515 43.44 122.901 43.84 122.155 44.24H119.275ZM121.035 42.2C121.568 42.2 122.061 42.0667 122.515 41.8C122.968 41.5067 123.355 41.12 123.675 40.64C123.941 40.2133 124.181 39.68 124.395 39.04C124.635 38.3733 124.808 37.7333 124.915 37.12C125.155 35.92 125.301 34.6933 125.355 33.44C125.381 33.12 125.395 32.6533 125.395 32.04C125.395 23.9867 123.835 19.7867 120.715 19.44C120.528 20.64 120.435 22.0267 120.435 23.6C120.435 25.28 120.541 28.2133 120.755 32.4C120.941 36.1067 121.035 39.0533 121.035 41.24V42.2Z" fill="#AA4DB9"/>
<path d="M56.4 78.26C54.18 78.26 53.07 75.98 53.07 71.42C53.07 68.54 51.81 58.25 49.29 40.55C46.83 22.79 45.27 13.1 44.61 11.48C45.39 10.04 46.44 9.32 47.76 9.32C49.14 9.32 50.43 12.44 51.63 18.68C52.77 25.28 53.73 32.84 54.51 41.36L55.14 48.65C55.5 52.73 55.71 54.8 55.77 54.86L56.67 47.3L57.21 42.62C57.99 35.78 58.5 30.95 58.74 28.13C59.04 24.41 59.19 21.86 59.19 20.48V18.77C59.19 18.11 59.43 17.48 59.91 16.88C60.39 16.28 60.93 15.98 61.53 15.98C63.69 15.98 64.77 16.88 64.77 18.68V20.03C64.77 23.45 65.1 27.14 65.76 31.1C66.48 35 67.5 39.68 68.82 45.14C69.66 48.32 70.5 52.19 71.34 56.75C71.52 54.77 72.09 49.97 73.05 42.35C74.01 35.39 74.7 29.48 75.12 24.62C75.6 19.7 75.84 15.11 75.84 10.85C75.84 9.47 76.05 8.51 76.47 7.97C76.95 7.37 77.82 7.07 79.08 7.07C79.8 7.07 80.43 7.31 80.97 7.79C81.57 8.21 81.87 8.78 81.87 9.49999C81.87 10.16 81.57 10.85 80.97 11.57C80.97 15.89 80.64 20.96 79.98 26.78C79.32 32.54 78.51 38.03 77.55 43.25C76.59 48.35 75.78 53.84 75.12 59.72C74.46 65.54 74.13 70.67 74.13 75.11C74.13 76.07 73.89 76.82 73.41 77.36C72.99 77.96 72.33 78.26 71.43 78.26C70.77 78.26 69.99 77.03 69.09 74.57C67.95 71.15 66.54 64.34 64.86 54.14L63.24 43.61L62.43 37.76C61.65 43.22 61.05 47.63 60.63 50.99C60.27 54.29 59.91 58.22 59.55 62.78C59.13 67.16 58.92 71.48 58.92 75.74C58.92 76.34 58.65 76.91 58.11 77.45C57.63 77.99 57.06 78.26 56.4 78.26Z" fill="#EE51B1"/>
<path d="M8.85 73.2L8.8 71.25C8.76667 70.6833 8.75 70.05 8.75 69.35L8.8 67.65C8.7 67.2833 8.45 63.6333 8.05 56.7C7.65 49.7667 7.41667 45.3167 7.35 43.35C5.41667 43.2833 4.18333 43.0833 3.65 42.75C3.28333 42.4833 3.1 42.1833 3.1 41.85C3.1 41.5833 3.26667 41.35 3.6 41.15C3.96667 40.9167 4.33333 40.8 4.7 40.8C5.63333 40.8 6.76667 40.8667 8.1 41C9.36667 41.1667 10.5 41.25 11.5 41.25H11.9H12.3C13.3333 41.25 13.85 41.65 13.85 42.45C13.85 42.85 13.6833 43.1833 13.35 43.45C13.0167 43.6833 12.6333 43.8 12.2 43.8C11.9 43.8 11.4667 43.75 10.9 43.65L9.9 43.45L9.85 43.7L9.8 43.95C9.8 46.9167 10.0833 51.65 10.65 58.15C11.1833 64.25 11.45 68.9833 11.45 72.35C11.45 72.75 11.2667 73.1 10.9 73.4C10.5667 73.7 10.1833 73.85 9.75 73.85L8.85 73.2ZM27.643 74C26.5096 74 25.943 71.25 25.943 65.75L25.993 62.9L26.043 60.6V60.45V59.95C26.0763 59.6833 26.093 59.3667 26.093 59C26.093 58.9333 26.043 58.85 25.943 58.75C25.843 58.65 25.793 58.5667 25.793 58.5V58.45C25.6263 58.5167 25.3263 58.55 24.893 58.55C24.4596 58.55 23.9263 58.4833 23.293 58.35C23.093 58.3167 22.5596 58.2333 21.693 58.1V63.85C21.693 64.7167 21.743 66.0833 21.843 67.95C21.943 69.7833 21.993 71.15 21.993 72.05C21.993 72.55 21.8596 72.9833 21.593 73.35C21.3263 73.7167 20.9763 73.9 20.543 73.9C19.9096 73.9 19.4596 73.2833 19.193 72.05C18.9263 70.7833 18.793 69.1333 18.793 67.1L18.893 63.05C18.9263 61.9167 18.943 60.7167 18.943 59.45V58.6V57.9C18.943 57.3667 18.9263 57.0167 18.893 56.85V56.6L19.043 53.7C19.043 52.4333 18.993 50.55 18.893 48.05C18.793 45.55 18.743 43.6667 18.743 42.4C18.743 42 18.8763 41.65 19.143 41.35C19.4096 41.05 19.743 40.9 20.143 40.9C21.2096 40.9 21.743 41.9 21.743 43.9L21.643 50.1C21.5763 51.9667 21.543 54.05 21.543 56.35C22.043 56.5167 22.943 56.6 24.243 56.6H26.093C26.1596 56.4 26.193 56.2 26.193 56C26.193 54.4 26.093 52.0333 25.893 48.9C25.6596 45.9667 25.543 43.5833 25.543 41.75C25.543 41.3833 25.6763 41.0833 25.943 40.85C26.243 40.5833 26.593 40.45 26.993 40.45C27.2263 40.45 27.5596 40.5333 27.993 40.7L28.443 40.9C28.443 45.6333 28.6096 51.95 28.943 59.85L29.393 72.5C29.393 72.9667 29.2096 73.3333 28.843 73.6C28.5096 73.8667 28.1096 74 27.643 74Z" fill="#85BB4D"/>
<path d="M37.6957 74.65C37.2624 74.65 36.8624 74.5 36.4957 74.2C36.1624 73.9 35.979 73.5333 35.9457 73.1V71.8V70.8C35.9124 70.5 35.8957 70.15 35.8957 69.75C35.8957 69.05 35.8457 67.9833 35.7457 66.55L35.6457 63.35C35.6457 61.7167 35.6957 59.2833 35.7957 56.05C35.929 53.15 35.9957 50.7167 35.9957 48.75C35.9957 48.2833 35.9457 47.5833 35.8457 46.65C35.7457 45.6833 35.6957 44.9833 35.6957 44.55C35.6957 42.1833 36.3957 41 37.7957 41C38.8957 41 40.1624 41.2167 41.5957 41.65C43.0624 42.0833 43.7957 42.6 43.7957 43.2C43.7957 43.5333 43.6457 43.85 43.3457 44.15C43.079 44.4167 42.7457 44.6333 42.3457 44.8C40.9457 44.3 39.679 43.9667 38.5457 43.8C38.579 44.3 38.5957 45.0167 38.5957 45.95C38.5957 47.2833 38.579 48.4833 38.5457 49.55C38.4457 51.15 38.3957 52.35 38.3957 53.15L38.5457 53.95L39.3457 53.9C39.6124 53.8667 39.9457 53.85 40.3457 53.85C41.9457 53.85 42.7457 54.3167 42.7457 55.25C42.7457 55.6167 42.5957 55.9333 42.2957 56.2C41.9957 56.4333 41.6124 56.55 41.1457 56.55C40.5457 56.55 40.079 56.5167 39.7457 56.45H38.4957C38.5624 57.3167 38.5957 58.5833 38.5957 60.25C38.5957 61.9167 38.579 63.4167 38.5457 64.75C38.4457 66.7833 38.3957 68.3 38.3957 69.3C38.3957 71.1667 38.429 72.1 38.4957 72.1L40.1457 72.05C40.7124 72.0167 41.3957 72 42.1957 72C43.4624 72 44.0957 72.4 44.0957 73.2C44.0957 73.6667 43.879 74.0167 43.4457 74.25C43.0457 74.5167 42.5457 74.65 41.9457 74.65H37.6957Z" fill="#EEA402"/>
</svg>
